<?xml version="1.0" encoding="utf-8"?>
<!-- Generator: Adobe Illustrator 16.0.0, SVG Export Plug-In . SVG Version: 6.00 Build 0)  -->
<!DOCTYPE svg PUBLIC "-//W3C//DTD SVG 1.1//EN" "http://www.w3.org/Graphics/SVG/1.1/DTD/svg11.dtd">
<svg version="1.1" id="Layer_1" xmlns="http://www.w3.org/2000/svg" x="0px" y="0px"
     width="33.666px" height="28.487px" viewBox="0 0 33.666 28.487" enable-background="new 0 0 33.666 28.487"
     xml:space="preserve">
<g>
	<path fill="#FFFFFF" d="M-243.014,7.03c0.001-0.017,0.005-0.033,0.005-0.049c0-0.365-0.188-0.687-0.471-0.875l-0.147-3.34
		c-0.008-0.153-0.133-0.429-0.435-0.429c-0.302,0-0.425,0.276-0.435,0.429l-0.172,3.363c-0.266,0.19-0.44,0.5-0.44,0.852
		c0,0.58,0.47,1.05,1.05,1.05c0.042,0,0.083-0.008,0.125-0.013l2.026,1.795c0.116,0.103,0.412,0.196,0.656-0.047
		c0.244-0.245,0.148-0.54,0.048-0.655L-243.014,7.03z"/>
    <path fill="#FFFFFF" d="M-244.059-1.582c-4.729,0-8.563,3.833-8.563,8.563s3.833,8.563,8.563,8.563
		c4.729,0,8.563-3.833,8.563-8.563S-239.33-1.582-244.059-1.582z M-244.059,13.873c-3.8,0-6.892-3.091-6.892-6.892
		s3.092-6.892,6.892-6.892c3.801,0,6.893,3.091,6.893,6.892S-240.258,13.873-244.059,13.873z"/>
</g>
    <g>
	<path d="M586.545-4.438h-15.063c-1.782,0-3.229,1.446-3.229,3.228v5.581l2.152-1.865V-1.21c0-0.593,0.483-1.075,1.076-1.075h15.063
		c0.593,0,1.076,0.482,1.076,1.075V20.31c0,0.594-0.483,1.076-1.076,1.076h-15.063c-0.593,0-1.076-0.482-1.076-1.076v-3.715
		l-2.152-1.865v5.58c0,1.782,1.446,3.229,3.229,3.229h15.063c1.783,0,3.229-1.446,3.229-3.229V-1.21
		C589.773-2.992,588.328-4.438,586.545-4.438z"/>
        <path d="M574.709,2.556l-8.07,6.994l8.07,6.994c0,0,1.076,0.303,1.076-1.076c0-0.313,0-1.352,0-2.689h6.456
		c0.594,0,1.076-0.484,1.076-1.077V7.398c0-0.593-0.482-1.076-1.076-1.076h-6.456c0-1.287,0-2.319,0-2.724
		C575.785,2.152,574.709,2.556,574.709,2.556z"/>
</g>
    <g>
	<rect x="700.691" y="1.829" width="2.688" height="25.905"/>
        <rect x="707.411" y="1.829" width="2.688" height="25.905"/>
        <rect x="704.723" y="1.829" width="1.346" height="25.905"/>
        <rect x="711.445" y="1.829" width="1.343" height="25.905"/>
        <rect x="729.814" y="1.829" width="2.688" height="25.905"/>
        <rect x="733.847" y="1.829" width="1.345" height="25.905"/>
        <rect x="714.748" y="1.829" width="2.688" height="25.905"/>
        <rect x="721.468" y="1.829" width="2.688" height="25.905"/>
        <rect x="718.779" y="1.829" width="1.346" height="25.905"/>
        <rect x="725.502" y="1.829" width="1.342" height="25.905"/>
</g>
    <g>
	<path d="M872.725-3.361c0-0.904-0.736-1.641-1.641-1.641h-8.201c0-2.331-1.016-3.281-3.281-3.281h-6.562
		c-2.266,0-3.281,0.95-3.281,3.281h-8.202c-0.903,0-1.64,0.737-1.64,1.641h-1.642v3.281h36.091v-3.281H872.725z"/>
        <path d="M841.557,27.807c0,2.715,2.208,4.922,4.922,4.922h19.685c2.714,0,4.921-2.207,4.921-4.922V1.56h-29.527V27.807z
		 M861.242,6.482h3.281v19.686h-3.281V6.482z M854.681,6.482h3.28v19.686h-3.28V6.482z M848.119,6.482h3.28v19.686h-3.28V6.482z"/>
</g>
    <path fill="#F1F2F2" d="M-93.807,136l-2.992-2.031c-0.824-0.557-1.953-0.342-2.51,0.478l-14.643,21.596l-6.73-6.73
	c-0.703-0.701-1.851-0.701-2.555,0l-2.555,2.559c-0.707,0.705-0.707,1.851,0,2.557l10.346,10.35c0.582,0.578,1.49,1.025,2.311,1.025
	s1.647-0.517,2.178-1.29l17.631-26.004C-92.767,137.687-92.982,136.56-93.807,136z"/>
    <g>
	<path fill="#FFFFFF" d="M25.099,149.432c-0.382-0.141-0.764-0.276-1.14-0.401c-0.241-0.077-1.752-0.76-0.809-3.632h-0.012
		c2.463-2.537,4.344-6.621,4.344-10.64c0-6.182-4.109-9.42-8.885-9.42c-4.778,0-8.867,3.238-8.867,9.42
		c0,4.035,1.872,8.136,4.351,10.665c0.966,2.534-0.761,3.475-1.124,3.606c-5.002,1.81-10.868,5.106-10.868,8.361
		c0,0.88,0,0.348,0,1.221c0,4.181,7.642,5.315,15.184,5.432c-0.108-0.579-0.108-1.182,0.063-1.769l1.864-6.351
		c0.196-0.672,0.583-1.276,1.12-1.756L25.099,149.432z"/>
        <path fill="#FFFFFF" d="M34.668,150.989l-1.46-1.464l0.009-0.009l-1.955-1.954l-8.898,8.818c-0.121,0.099-0.227,0.224-0.274,0.385
		l-1.866,6.358c-0.079,0.28-0.003,0.578,0.201,0.782c0.148,0.151,0.352,0.232,0.557,0.232c0.078,0,0.15-0.011,0.225-0.032
		l6.359-1.868c0.15-0.044,0.268-0.139,0.365-0.25l8.917-8.841l-2.166-2.167L34.668,150.989z M23.2,161.872l-0.743-0.745l1.005-3.421
		l0.429,0.43l2.102,0.172l0.115,2.048l0.514,0.514L23.2,161.872z"/>
        <polygon fill="#FFFFFF" points="32.07,146.674 37.654,152.26 38.934,151.062 33.346,145.475 	"/>
        <path fill="#FFFFFF" d="M40.403,146.593l-2.678-2.676c-0.737-0.739-1.932-0.747-2.663-0.015l-0.82,0.83l5.353,5.355l0.823-0.832
		C41.148,148.526,41.144,147.333,40.403,146.593z"/>
</g>
    <g>
	<path d="M429.59,135.313c0.867,1.536,6.413,2.307,9.13,2.208c2.717-0.097,8.277-1.317,8.07-3.649
		c-0.386-4.322,2.248-10.102,2.77-10.906c1.057-1.634,1.143-5.042-3.325-3.419c-1.046,0.381-3.512,2.943-4.558-0.096
		c-1.882-5.463-6.251-3.943-7.214-0.38c-0.666,2.472-3.326,2.658-6.363,2.375c-3.558-0.334-4.014,1.894-2.832,3.778
		C425.9,126.226,428.595,133.548,429.59,135.313z"/>
        <path d="M448.547,138.234c-0.593-0.169-1.66,2.746-9.636,3.035c-7.209,0.263-9.295-2.376-9.716-2.229
		c-10.671,3.708-19.668,14.597-19.668,25.632c0,14.195,8.102,17.929,30.631,17.929s30.631-3.824,30.631-17.929
		C470.789,152.805,459.825,141.444,448.547,138.234z M440.438,169.58v2.904c0,0.215-0.179,0.392-0.394,0.392h-2.608
		c-0.218,0-0.395-0.177-0.395-0.392v-2.669c-1.846-0.114-3.735-0.651-4.9-1.393c-0.147-0.095-0.213-0.271-0.167-0.439l0.846-2.981
		c0.033-0.117,0.121-0.214,0.232-0.259c0.122-0.041,0.244-0.033,0.35,0.03c0.826,0.494,2.532,1.324,4.692,1.324
		c1.803,0,2.966-0.808,2.966-2.056c0-1.188-0.895-1.973-3.191-2.799c-2.812-1.027-5.69-2.542-5.69-5.989
		c0-2.858,1.929-5.016,5.053-5.689v-2.72c0-0.217,0.177-0.395,0.396-0.395h2.572c0.215,0,0.392,0.178,0.392,0.395v2.513
		c1.971,0.121,3.282,0.673,4.116,1.088c0.17,0.086,0.252,0.281,0.199,0.464l-0.848,2.885c-0.03,0.111-0.114,0.202-0.22,0.252
		c-0.106,0.047-0.226,0.042-0.332-0.01c-0.826-0.414-2.11-1.059-4.093-1.059c-1.622,0-2.588,0.677-2.588,1.806
		c0,1.001,0.901,1.685,3.575,2.71c3.721,1.396,5.308,3.249,5.308,6.205C445.708,166.644,443.647,168.923,440.438,169.58z"/>
</g>
    <g>
	<g>
		<path d="M580.742,153.761c0,0.546-0.443,0.812-0.989,0.594l-1.978-0.792c-0.546-0.218-0.989-0.838-0.989-1.384v-3.667l3.956-0.989
			V153.761z"/>
	</g>
</g>
    <g>
	<path d="M580.742,147.523h-3.956l-4.449-4.944c0-0.546,0.442-0.988,0.988-0.988h10.878c0.546,0,0.988,0.442,0.988,0.988
		L580.742,147.523z"/>
</g>
    <g>
	<path d="M740.149,129.814l-14.375,19.167h9.584c0,10.576-8.601,19.167-19.166,19.167c-3.566,0-6.931-1.066-9.859-2.827
		l-5.822,7.759c4.576,2.967,9.99,4.651,15.682,4.651c15.854,0,28.75-12.896,28.75-28.75h9.582L740.149,129.814z"/>
        <path d="M697.024,148.981c0-10.576,8.597-19.167,19.168-19.167c3.564,0,6.929,1.066,9.854,2.827l5.821-7.759
		c-4.567-2.967-9.985-4.651-15.675-4.651c-15.854,0-28.75,12.896-28.75,28.75h-9.584l14.375,19.167l14.375-19.167H697.024z"/>
</g>
    <path d="M867.844,142.685l8.692,8.705c2.801,2.799-3.315,5.312-3.315,12.229c0,5.254,8.473,11.036,8.473,2.12
	c0-2.749,0-7.604,0-10.354C881.691,144.98,867.844,142.685,867.844,142.685z"/>
    <path fill="none" stroke="#000000" stroke-width="2" stroke-linecap="round" stroke-linejoin="round"
          stroke-miterlimit="10" d="
	M864.348,144.473c0-6.431-3.542-15.609-9.539-15.609c-5.998,0-7.805,5.854-7.805,8.672"/>
    <path d="M862.438,141.533c0.256,1.721,0.203,3.164,0.113,3.882c0.821,0.542,1.36,1.471,1.36,2.527c0,1.674-1.357,3.032-3.034,3.032
	s-3.031-1.358-3.031-3.032c0-1.08,0.568-2.022,1.417-2.561c0.449-1.318,1.061-3.896,0.104-6.916l-1.751-1.756
	c-2.461-2.463-4.869-0.159-4.869-0.159l-15.488,15.483c-1.622,1.626,1.418,7.301,6.794,12.673
	c5.371,5.376,11.045,8.418,12.671,6.792c0,0,14.613-14.617,15.393-15.393c0.775-0.777,2.048-2.839,0.189-4.697
	C870.448,149.551,862.438,141.533,862.438,141.533z"/>
    <g>
	<path d="M312.663,137.4c0.561-0.048,1.121-0.085,1.695-0.085c1.06,0,2.085,0.109,3.097,0.273c0.26-0.656,0.403-1.333,0.403-2.023
		c0-0.622-0.13-1.228-0.335-1.818C316.341,135.134,314.666,136.358,312.663,137.4z"/>
        <path d="M296.858,146.065c0.472,0,0.937-0.021,1.408-0.034c1.579-2.399,3.678-4.416,6.139-5.909
		c-2.358,0.434-4.881,0.693-7.547,0.693c-9.297,0-17.104-2.864-20.665-7.068c-0.212,0.591-0.335,1.196-0.335,1.818
		C275.858,141.362,285.258,146.065,296.858,146.065z"/>
        <path d="M295.45,153.031c0.342-1.853,0.957-3.605,1.791-5.229c-0.13,0-0.253,0.014-0.383,0.014c-9.297,0-17.104-2.864-20.665-7.068
		c-0.212,0.591-0.335,1.196-0.335,1.818C275.858,148.123,284.513,152.665,295.45,153.031z"/>
        <path d="M296.858,139.065c11.594,0,21-4.703,21-10.5s-9.406-10.5-21-10.5c-11.601,0-21,4.703-21,10.5
		S285.258,139.065,296.858,139.065z M299.757,130.076c-0.588-0.191-1.9-0.424-3.924-0.711c-1.825-0.253-3.247-0.506-4.272-0.752
		s-1.859-0.591-2.502-1.035c-0.636-0.448-0.957-0.968-0.957-1.556c0-0.775,0.574-1.477,1.716-2.096
		c1.142-0.618,2.939-0.997,5.394-1.138v-1.224h3.315v1.224c3.705,0.178,6.104,1.019,7.191,2.516l-4.566,0.752
		c-0.889-1.028-2.263-1.545-4.129-1.545c-0.937,0-1.688,0.116-2.256,0.345c-0.566,0.229-0.848,0.51-0.848,0.838
		c0,0.331,0.273,0.588,0.82,0.766c0.54,0.178,1.716,0.4,3.508,0.663c1.969,0.287,3.513,0.561,4.627,0.813
		c1.121,0.256,2.018,0.611,2.687,1.06c0.663,0.451,0.999,0.978,0.999,1.579c0,0.93-0.691,1.699-2.065,2.317
		c-1.38,0.615-3.37,0.981-5.968,1.091v1.582h-3.314v-1.576c-4.342-0.177-7.021-1.186-8.061-3.024l5.127-0.533
		c0.479,1.155,2.051,1.733,4.717,1.733c1.252,0,2.174-0.123,2.762-0.373c0.588-0.246,0.882-0.547,0.882-0.896
		C300.639,130.534,300.345,130.26,299.757,130.076z"/>
        <path d="M295.437,160.031c-0.205-1.128-0.328-2.283-0.328-3.466c0-0.611,0.034-1.217,0.089-1.814
		c-8.545-0.321-15.654-3.056-19.004-7.004c-0.212,0.591-0.335,1.196-0.335,1.818C275.858,155.123,284.506,159.662,295.437,160.031z"
        />
        <path d="M314.358,139.065c-9.673,0-17.5,7.841-17.5,17.5c0,9.67,7.827,17.5,17.5,17.5c9.666,0,17.5-7.83,17.5-17.5
		C331.858,146.906,324.024,139.065,314.358,139.065z M325.608,159.44h-21.833v-4.333h21.833V159.44z"/>
        <path d="M296.858,167.065c0.458,0,0.909-0.021,1.367-0.034c-1.045-1.604-1.853-3.37-2.379-5.253
		c-8.839-0.206-16.222-2.984-19.653-7.031c-0.212,0.591-0.335,1.196-0.335,1.818C275.858,162.362,285.258,167.065,296.858,167.065z"
        />
</g>
    <g>
	<path d="M155.783,152.364c0.342-1.853,0.957-3.605,1.791-5.229c-0.13,0-0.253,0.014-0.383,0.014
		c-9.297,0-17.104-2.864-20.665-7.068c-0.212,0.591-0.335,1.196-0.335,1.818C136.191,147.456,144.846,151.998,155.783,152.364z"/>
        <path d="M157.191,145.398c0.472,0,0.937-0.021,1.408-0.034c1.579-2.399,3.678-4.416,6.139-5.909
		c-2.358,0.434-4.881,0.693-7.547,0.693c-9.297,0-17.104-2.864-20.665-7.068c-0.212,0.591-0.335,1.196-0.335,1.818
		C136.191,140.695,145.591,145.398,157.191,145.398z"/>
        <path d="M172.996,136.733c0.561-0.048,1.121-0.085,1.695-0.085c1.06,0,2.085,0.109,3.097,0.273c0.26-0.656,0.403-1.333,0.403-2.023
		c0-0.622-0.13-1.228-0.335-1.818C176.674,134.467,174.999,135.691,172.996,136.733z"/>
        <path d="M157.191,138.398c11.594,0,21-4.703,21-10.5s-9.406-10.5-21-10.5c-11.601,0-21,4.703-21,10.5
		S145.591,138.398,157.191,138.398z M160.09,129.409c-0.588-0.191-1.9-0.424-3.924-0.711c-1.825-0.253-3.247-0.506-4.272-0.752
		s-1.859-0.591-2.502-1.035c-0.636-0.448-0.957-0.968-0.957-1.556c0-0.775,0.574-1.477,1.716-2.096
		c1.142-0.618,2.939-0.997,5.394-1.138v-1.224h3.315v1.224c3.705,0.178,6.104,1.019,7.191,2.516l-4.566,0.752
		c-0.889-1.028-2.263-1.545-4.129-1.545c-0.937,0-1.688,0.116-2.256,0.345c-0.566,0.229-0.848,0.51-0.848,0.838
		c0,0.331,0.273,0.588,0.82,0.766c0.54,0.178,1.716,0.4,3.508,0.663c1.969,0.287,3.513,0.561,4.627,0.813
		c1.121,0.256,2.018,0.611,2.687,1.06c0.663,0.451,0.999,0.978,0.999,1.579c0,0.93-0.691,1.699-2.065,2.317
		c-1.38,0.615-3.37,0.981-5.968,1.091v1.582h-3.314v-1.576c-4.342-0.177-7.021-1.186-8.061-3.024l5.127-0.533
		c0.479,1.155,2.051,1.733,4.717,1.733c1.252,0,2.174-0.123,2.762-0.373c0.588-0.246,0.882-0.547,0.882-0.896
		C160.972,129.867,160.678,129.593,160.09,129.409z"/>
        <path d="M174.691,138.398c-9.673,0-17.5,7.841-17.5,17.5c0,9.67,7.827,17.5,17.5,17.5c9.666,0,17.5-7.83,17.5-17.5
		C192.191,146.239,184.357,138.398,174.691,138.398z M185.941,158.773h-8.75v8.75h-4.333v-8.75h-8.75v-4.333h8.75v-8.75h4.333v8.75
		h8.75V158.773z"/>
        <path d="M155.77,159.364c-0.205-1.128-0.328-2.283-0.328-3.466c0-0.611,0.034-1.217,0.089-1.814
		c-8.545-0.321-15.654-3.056-19.004-7.004c-0.212,0.591-0.335,1.196-0.335,1.818C136.191,154.456,144.839,158.995,155.77,159.364z"
        />
        <path d="M157.191,166.398c0.458,0,0.909-0.021,1.367-0.034c-1.045-1.604-1.853-3.37-2.379-5.253
		c-8.839-0.206-16.222-2.984-19.653-7.031c-0.212,0.591-0.335,1.196-0.335,1.818C136.191,161.695,145.591,166.398,157.191,166.398z"
        />
</g>
    <g>
	<path d="M-236.312,145.338h-2.615v-6.103h2.615V145.338z M-229.337,142.723v14.82c0,1.445-1.171,2.615-2.615,2.615h-17.436
		c-1.444,0-2.615-1.17-2.615-2.615v-17.436c0-1.444,1.171-2.615,2.615-2.615h14.821c0.722,0,1.12,0.037,3.156,2.074
		C-229.375,141.603-229.337,142.001-229.337,142.723z M-247.645,145.338c0,0.48,0.392,0.872,0.872,0.872h11.333
		c0.48,0,0.872-0.392,0.872-0.872v-6.103c0-0.479-0.392-0.871-0.872-0.871h-11.333c-0.48,0-0.872,0.392-0.872,0.871V145.338z
		 M-231.952,149.698c0-0.48-0.392-0.872-0.872-0.872h-15.692c-0.48,0-0.872,0.392-0.872,0.872v8.718c0,0.48,0.392,0.872,0.872,0.872
		h15.692c0.48,0,0.872-0.392,0.872-0.872V149.698z"/>
</g>
    <g>
	<path fill="#FFFFFF" d="M1005.326,135.265c-0.445,0-0.808-0.363-0.808-0.809v-2.426c0-0.446,0.362-0.809,0.808-0.809l0,0
		c0.446,0,0.81,0.362,0.81,0.809v2.426C1006.136,134.902,1005.772,135.265,1005.326,135.265L1005.326,135.265z"/>
</g>
    <g>
	<path fill="#FFFFFF" d="M1018.266,132.839h-1.617v1.617c0,0.892-0.726,1.618-1.617,1.618c-0.893,0-1.617-0.727-1.617-1.618v-1.617
		h-6.47v1.617c0,0.892-0.726,1.618-1.618,1.618c-0.892,0-1.617-0.727-1.617-1.618v-1.617h-1.617c-1.34,0-2.426,1.086-2.426,2.426
		v14.557c0,1.34,1.086,2.426,2.426,2.426h16.174c1.339,0,2.426-1.086,2.426-2.426v-14.557
		C1020.691,133.925,1019.604,132.839,1018.266,132.839z M1019.074,149.822c0,0.445-0.363,0.809-0.809,0.809h-16.174
		c-0.445,0-0.809-0.363-0.809-0.809V138.5h17.791V149.822z"/>
</g>
    <g>
	<path fill="#FFFFFF" d="M1015.031,135.265c-0.446,0-0.81-0.363-0.81-0.809v-2.426c0-0.446,0.363-0.809,0.81-0.809l0,0
		c0.445,0,0.808,0.362,0.808,0.809v2.426C1015.839,134.902,1015.477,135.265,1015.031,135.265L1015.031,135.265z"/>
</g>
    <g>
	<path fill="#FFFFFF" d="M1017.053,149.013h-13.748c-0.223,0-0.404-0.182-0.404-0.404v-8.087c0-0.224,0.182-0.404,0.404-0.404
		h13.748c0.223,0,0.404,0.181,0.404,0.404v8.087C1017.457,148.832,1017.275,149.013,1017.053,149.013z M1003.709,148.205h12.939
		v-7.278h-12.939V148.205z"/>
</g>
    <g>
	<path fill="#FFFFFF" d="M1013.818,149.013c-0.225,0-0.404-0.182-0.404-0.404v-8.087c0-0.224,0.18-0.404,0.404-0.404
		c0.223,0,0.403,0.181,0.403,0.404v8.087C1014.222,148.832,1014.041,149.013,1013.818,149.013z"/>
</g>
    <g>
	<path fill="#FFFFFF" d="M1010.583,149.013c-0.224,0-0.404-0.182-0.404-0.404v-8.087c0-0.224,0.181-0.404,0.404-0.404
		s0.404,0.181,0.404,0.404v8.087C1010.987,148.832,1010.807,149.013,1010.583,149.013z"/>
</g>
    <g>
	<path fill="#FFFFFF" d="M1006.539,149.013c-0.223,0-0.403-0.182-0.403-0.404v-8.087c0-0.224,0.181-0.404,0.403-0.404
		c0.225,0,0.405,0.181,0.405,0.404v8.087C1006.944,148.832,1006.764,149.013,1006.539,149.013z"/>
</g>
    <g>
	<path fill="#FFFFFF" d="M1017.053,146.586h-13.748c-0.223,0-0.404-0.181-0.404-0.404s0.182-0.404,0.404-0.404h13.748
		c0.223,0,0.404,0.181,0.404,0.404S1017.275,146.586,1017.053,146.586z"/>
</g>
    <g>
	<path fill="#FFFFFF" d="M1017.053,143.352h-13.748c-0.223,0-0.404-0.181-0.404-0.404s0.182-0.404,0.404-0.404h13.748
		c0.223,0,0.404,0.181,0.404,0.404S1017.275,143.352,1017.053,143.352z"/>
</g>
    <g>
	<path d="M-247.362,280.754c-0.225-0.095-0.484-0.041-0.657,0.13l-7.216,5.669c-0.235,0.233-0.235,0.617,0,0.853l7.216,5.641
		c0.115,0.117,0.27,0.178,0.426,0.178c0.078,0,0.157-0.016,0.231-0.045c0.226-0.094,0.36-0.314,0.36-0.558v-3.379
		c7.717,0,11.091,2.176,10.577,9.108c3.27-11.091-3.005-13.598-10.577-13.598v-3.443
		C-247.002,281.067-247.137,280.847-247.362,280.754z"/>
</g>
    <path fill="#307384" d="M-103.543,258.731h-18.878c-2.526,2.46-4.102,5.893-4.102,9.697c0,7.476,6.064,13.541,13.541,13.541
	s13.539-6.065,13.539-13.541C-99.442,264.624-101.017,261.191-103.543,258.731z M-110.939,274.56h-4.087v-8.176h-3.193l4.089-4.088
	h3.191V274.56z"/>
    <path fill="#307384" d="M-63.411,287.23c-1.598-2.076-5.188-3.809-12.475,0.495c0.676-3.027-1.729-4.898-4.566-4.898
	c-2.516,0-5.453,0.651-7.788,3.022c-3.354-4.415-6.807-3.89-13.52,0.275c-2.56,1.588-4.815,2.946-6.495,3.895
	c-0.447,0.254-0.807,0.444-1.166,0.635c0.658,0.138,1.325,0.256,2.06,0.256c9.421,0,16.861,0,16.861,8.177
	c0,6.282-7.296,8.091-11.157,8.168h-17.456c-7.193,0-14.235-7.497-14.235-7.497s8.314,3.408,14.235,3.408h17.417
	c0.027,0,7.109-0.279,7.109-4.079c0-3.478-1.913-4.089-12.774-4.089c-7.089,0-14.259-4.184-14.259-4.184s-7.179-5.241-9.382-6.618
	c-5.212-3.257-9.38-6.347-18.486-2.762c-2.394,0.943-5.962,2.506-9.32,4.01v24.209l0.035,0.078h70.911
	c8.931-5.866,18.791-12.43,20.479-13.623C-62.743,292.834-61.299,289.976-63.411,287.23z"/>
    <g opacity="0.3">
	<path fill="#FFFFFF" d="M298.476,281.337c-8.01,0-14.68,2.592-14.68,2.592l6.607,16.963c0,0,5.195-1.848,8.773-1.848
		s7.124,0.523,7.124,0.523l-4.798-18.038C301.503,281.53,300.147,281.337,298.476,281.337z"/>
        <path fill="#FFFFFF" d="M324.093,288.655c-4.652,0-9.046-2.242-9.046-2.242l3.708,16.252c0,0,3.712,0.685,6.258,0.685
		s5.723-0.577,5.723-0.577l-1.205-14.88C329.53,287.892,327.073,288.655,324.093,288.655z"/>
        <g>
		<path fill="#FFFFFF" d="M270.864,308.743h22.524l-2.985-7.851c-4.243,1.635-8.599,4.814-11.426,7.115l-6.383-17.817
			c5.615-4.243,11.201-6.261,11.201-6.261l-4.745-12.184c4.321-1.772,9.683-3.14,15.99-3.14c1.089,0,2.104,0.092,3.084,0.228
			l3.378,12.696c3.581,0,13.544,4.883,13.544,4.883l-2.804-12.272c3.086,1.312,6.415,2.353,10.421,2.353
			c2.009,0,3.983-0.281,5.884-0.724l0.982,12.123c0,0,3.844-0.972,8.765-3.902v16.373c-4.143,1.771-7.56,2.409-7.56,2.409
			l0.474,5.971h14.973v-44.08c0-1.525-0.878-2.915-2.261-3.566c-1.37-0.647-3.008-0.45-4.187,0.521
			c-2.363,1.944-10.038,6.989-17.07,6.989c-3.859,0-7.04-1.517-10.726-3.273c-4.528-2.164-9.662-4.613-16.897-4.613
			c-21.366,0-33.716,13.123-34.231,13.683c-0.994,1.078-1.31,2.618-0.813,4.001L270.864,308.743z"/>
            <path fill="#FFFFFF"
                  d="M318.755,302.665c-3.708-0.967-9.709-2.712-12.454-3.097l2.44,9.175h11.402L318.755,302.665z"/>
	</g>
        <path fill="#FFFFFF" d="M255.755,278.31c1.289-0.952,1.929-2.632,1.457-4.263c-0.604-2.088-2.8-3.293-4.887-2.691l-0.138,0.04
		v20.263l6.164,17.084h8.384L255.755,278.31z"/>
</g>
    <path opacity="0.3" fill="#FFFFFF" d="M142.91,299.941c-5.074,1.824-10.522,4.335-14.976,7.208v10.582h65.645
	c-1.047-1.583-2.159-3.073-3.348-4.427c-4.104-5.483-13.851-10.425-22.813-13.363c-0.53-0.174-3.9-1.676-1.789-8.059h-0.034
	c5.491-5.607,9.68-14.649,9.68-23.552c0-13.677-9.16-20.85-19.795-20.85c-10.647,0-19.753,7.173-19.753,20.85
	c0,8.936,4.172,18.02,9.68,23.615C147.563,297.563,143.717,299.644,142.91,299.941z"/>
    <path fill="#9ECC5E" d="M19.661,257.267v11.391h-4.159v-8.321h-3.251l3.069-3.069H4.803c-0.642,1.592-1.004,3.327-1.004,5.149
	c0,7.61,6.169,13.782,13.782,13.782c7.607,0,13.783-6.172,13.783-13.782c0-1.822-0.362-3.558-1.005-5.149H19.661z"/>
    <path fill="#9ECC5E" d="M68.04,281.557c-1.626-2.113-5.283-3.878-12.702,0.504c0.69-3.082-1.755-4.987-4.649-4.987
	c-2.559,0-5.549,0.662-7.922,3.077c-3.414-4.495-6.932-3.96-13.768,0.28c-2.6,1.616-4.9,2.998-6.605,3.966
	c-0.456,0.256-0.821,0.45-1.188,0.646c0.667,0.138,1.35,0.26,2.097,0.26c9.589,0,17.163,0,17.163,8.321
	c0,6.396-7.427,8.236-11.359,8.313H11.34c-7.322,0-14.489-7.631-14.489-7.631s8.459,3.47,14.489,3.47h17.726
	c0.031,0,7.24-0.283,7.24-4.152c0-3.539-1.951-4.16-13.003-4.16c-7.216,0-14.514-4.259-14.514-4.259s-7.306-5.335-9.548-6.738
	c-5.309-3.316-9.55-6.461-18.822-2.812c-2.215,0.874-5.422,2.269-8.557,3.666v27.115l1.69,3.749l6.028-3.917
	c3.333-2.121,5.186-2.485,9.493-0.268c1.767,0.907,5.082,2.625,8.561,4.422H34.01c9.774-6.315,27.636-18.17,29.983-19.829
	C68.715,287.261,70.186,284.352,68.04,281.557z"/>
    <rect x="559.394" y="268.382" fill="#F5891F" width="38.539" height="39.02"/>
    <polygon fill="#FFFFFF" points="590.038,285.392 581.163,285.392 581.163,276.517 576.163,276.517 576.163,285.392 567.288,285.392
	567.288,290.392 576.163,290.392 576.163,299.267 581.163,299.267 581.163,290.392 590.038,290.392 "/>
    <g>
	<path fill="#F58720" d="M462.666,297.769l-17.274-29.918c-2.112-3.658-5.565-3.658-7.679,0l-17.274,29.918
		c-2.112,3.662-0.384,6.648,3.837,6.648h34.553C463.05,304.417,464.777,301.431,462.666,297.769z"/>
</g>
    <g>
	<path fill="#FFFFFF" d="M443.143,290.127c0.432-4.613,1.729-10.956,1.729-11.817c0-1.003-0.311-1.837-0.932-2.504
		c-0.625-0.665-1.418-0.999-2.387-0.999s-1.762,0.338-2.387,1.013c-0.62,0.672-0.932,1.502-0.932,2.49
		c0,0.861,1.407,7.204,1.786,11.817H443.143z"/>
        <path fill="#FFFFFF" d="M443.896,293.101c-0.657-0.654-1.438-0.981-2.343-0.981s-1.686,0.327-2.342,0.981
		c-0.654,0.655-0.981,1.437-0.981,2.34c0,0.907,0.327,1.682,0.981,2.319c0.656,0.639,1.438,0.958,2.342,0.958
		s1.686-0.319,2.343-0.958c0.654-0.638,0.98-1.412,0.98-2.319C444.876,294.538,444.55,293.756,443.896,293.101z"/>
</g>
    <polyline fill="none" stroke="#000000" stroke-width="1.9501" stroke-linecap="round" stroke-linejoin="round"
              stroke-miterlimit="10" points="
	993.157,24.54 983.854,27.271 986.583,17.967 "/>
    <g>
	<polygon points="988.697,20.064 990.591,20.489 990.862,22.229 1003.894,9.209 1001.729,7.043 	"/>
        <polygon points="1005.323,10.613 992.191,23.731 993.878,25.418 1007.062,12.351 	"/>
        <polygon points="1000.442,5.732 998.89,4.179 985.707,17.246 987.312,18.85 	"/>
</g>
    <polygon points="1008.243,11.052 1000.071,2.88 1001.94,1.128 1010.112,9.3 "/>
    <polyline fill="none" stroke="#ED1C24" stroke-width="1.9501" stroke-linecap="round" stroke-linejoin="round"
              stroke-miterlimit="10" points="
	1131.657,24.54 1122.354,27.271 1125.083,17.967 "/>
    <g>
	<polygon fill="#ED1C24"
             points="1127.197,20.064 1129.091,20.489 1129.362,22.229 1142.394,9.209 1140.229,7.043 	"/>
        <polygon fill="#ED1C24" points="1143.823,10.613 1130.691,23.731 1132.378,25.418 1145.562,12.351 	"/>
        <polygon fill="#ED1C24" points="1138.942,5.732 1137.39,4.179 1124.207,17.246 1125.812,18.85 	"/>
</g>
    <polygon fill="#ED1C24" points="1146.743,11.052 1138.571,2.88 1140.44,1.128 1148.612,9.3 "/>
    <polyline fill="none" stroke="#AAA9A9" stroke-width="1.9501" stroke-linecap="round" stroke-linejoin="round"
              stroke-miterlimit="10" points="
	1266.324,24.54 1257.021,27.271 1259.75,17.967 "/>
    <g>
	<polygon fill="#AAA9A9"
             points="1261.864,20.064 1263.758,20.489 1264.029,22.229 1277.061,9.209 1274.896,7.043 	"/>
        <polygon fill="#AAA9A9" points="1278.49,10.613 1265.358,23.731 1267.045,25.418 1280.229,12.351 	"/>
        <polygon fill="#AAA9A9" points="1273.609,5.732 1272.057,4.179 1258.874,17.246 1260.479,18.85 	"/>
</g>
    <polygon fill="#AAA9A9" points="1281.41,11.052 1273.238,2.88 1275.107,1.128 1283.279,9.3 "/>
    <g>
	<path fill="#FFFFFF" d="M177.286,23.04l-6.411-6.412c-0.808-0.809-2.021-0.945-2.981-0.436l-1.217-1.219
		c1.839-2.322,2.944-5.254,2.944-8.447c0-7.53-6.104-13.633-13.633-13.633c-7.531,0-13.634,6.103-13.634,13.633
		c0,7.531,6.103,13.634,13.634,13.634c3.192,0,6.123-1.105,8.445-2.943l1.218,1.217c-0.509,0.957-0.37,2.17,0.438,2.979l6.412,6.412
		c0.991,0.992,2.597,0.992,3.589,0l1.196-1.195C178.276,25.637,178.276,24.03,177.286,23.04z M144.875,6.526
		c0-6.138,4.975-11.111,11.113-11.111S167.1,0.389,167.1,6.526c0,6.138-4.973,11.111-11.111,11.111S144.875,12.665,144.875,6.526z"
    />
</g>
    <g>
	<path fill="#FFFFFF" d="M-85.263,13.281c-0.646-0.839-2.1-1.541-5.047,0.2c0.273-1.226-0.698-1.981-1.848-1.981
		c-1.018,0-2.205,0.262-3.148,1.222c-1.357-1.785-2.755-1.573-5.472,0.112c-1.033,0.642-1.948,1.191-2.625,1.575
		c-0.181,0.103-0.325,0.18-0.472,0.257c0.266,0.056,0.537,0.104,0.834,0.104c3.81,0,6.82,0,6.82,3.307
		c0,2.542-2.952,3.274-4.516,3.305h-7.059c-2.91,0-5.759-3.032-5.759-3.032s3.362,1.377,5.759,1.377h7.043
		c0.012,0,2.877-0.11,2.877-1.649c0-1.405-0.775-1.652-5.166-1.652c-2.868,0-5.769-1.692-5.769-1.692s-2.903-2.121-3.795-2.678
		c-2.108-1.317-3.794-2.568-7.479-1.117c-2.331,0.919-7.431,3.292-7.431,3.292l4.702,10.43l2.396-1.556
		c1.324-0.844,2.061-0.989,3.771-0.107c1.66,0.853,6.76,3.504,8.033,4.122c3.916,1.9,5.599,0.199,7.49-0.892
		c1.615-0.931,13.049-8.504,14.25-9.353C-84.994,15.547-84.409,14.391-85.263,13.281z"/>
        <path fill="#FFFFFF" d="M-105.313,11.151c3.021,0,5.477-2.452,5.477-5.478c0-3.023-2.455-5.478-5.477-5.478
		c-3.027,0-5.479,2.454-5.479,5.478C-110.792,8.699-108.341,11.151-105.313,11.151z M-105.779,3.194h1.292v4.961h-1.654V4.846
		h-1.291L-105.779,3.194z"/>
        <path fill="#FFFFFF" d="M-98.72,1.23c0.007,0,0.014,0.001,0.02,0.001c2.112,0,3.824-1.713,3.824-3.825
		c0-2.11-1.712-3.823-3.824-3.823s-3.823,1.713-3.823,3.823c0,0.305,0.041,0.596,0.11,0.876C-100.906-1.123-99.614-0.095-98.72,1.23
		z M-99.026-4.324h0.9v3.461h-1.152V-3.17h-0.9L-99.026-4.324z"/>
</g>
    <g>
	<path fill="#FFFFFF" d="M448.972,25.198h-12.037c-4.215,0-7.445-2.48-8.229-6.32c-0.466-2.286-2.47-12.155-3.017-15.082
		c-0.299-1.604-1.061-2.672-3.8-2.672c-1.246,0-2.257-1.011-2.257-2.257s1.011-2.257,2.257-2.257c4.545,0,7.471,2.257,8.237,6.355
		c0.541,2.897,2.536,12.73,3.002,15.011c0.48,2.356,2.592,2.707,3.807,2.707h11.443c1.23-1.32,4.031-6.412,6.076-10.743
		c0.531-1.127,1.877-1.608,3.004-1.076c1.127,0.531,1.609,1.876,1.078,3.004C452.241,25.198,450.194,25.198,448.972,25.198z"/>
</g>
    <g>
	<circle fill="#FFFFFF" cx="435.431" cy="30.463" r="3.762"/>
</g>
    <g>
	<circle fill="#FFFFFF" cx="448.972" cy="30.463" r="3.762"/>
</g>
    <g>
	<path fill="#FFFFFF" d="M442.735,14.429c-0.152,0.122-0.335,0.181-0.52,0.181c-0.186,0-0.371-0.059-0.52-0.181
		c-0.149-0.116-4.283-4.121-6.524-7.452c-0.173-0.258-0.188-0.591-0.043-0.863c0.146-0.274,0.431-0.445,0.741-0.445h3.393
		c0,0,0.28-6.456,0.493-6.755c0.312-0.444,1.615-0.743,2.458-0.743c0.841,0,2.122,0.299,2.433,0.743
		c0.212,0.299,0.54,6.755,0.54,6.755h3.349c0.309,0,0.594,0.171,0.737,0.445c0.146,0.272,0.131,0.605-0.043,0.863
		C446.989,10.308,442.886,14.313,442.735,14.429z"/>
</g>
    <path fill="#FFFFFF" d="M32.371,0H11.653c-0.713,0-1.295,0.582-1.295,1.295c0,0,0,9.064,0,11.654s-2.59,2.59-2.59,2.59H1.295
	C0.581,15.539,0,16.121,0,16.833v10.358c0,0.714,0.581,1.295,1.295,1.295h31.076c0.713,0,1.295-0.581,1.295-1.295V1.295
	C33.666,0.582,33.084,0,32.371,0z M28.486,15.539c0,1.858-1.73,5.18-5.18,5.18h-4.643l2.321,2.321c0.506,0.506,0.506,1.325,0,1.831
	c-0.253,0.253-0.585,0.38-0.915,0.38c-0.332,0-0.663-0.127-0.916-0.38l-4.531-4.532c-0.506-0.506-0.506-1.325,0-1.831l4.531-4.532
	c0.506-0.506,1.325-0.506,1.831,0s0.506,1.326,0,1.831l-2.321,2.322h4.643c1.811,0,2.59-1.965,2.59-2.59v-2.59
	c0-0.716,0.58-1.295,1.295-1.295s1.295,0.579,1.295,1.295V15.539z"/>
    <g>
	<path fill="#FFFFFF" d="M299.987,13.829l2.158-3.076l-2.199-2.197l-3.033,2.184c-0.76-0.459-1.588-0.809-2.47-1.027l-0.646-3.684
		h-3.111L290.088,9.7c-0.884,0.217-1.716,0.561-2.476,1.016l-3.025-2.16l-2.201,2.197l2.129,3.043
		c-0.459,0.765-0.81,1.595-1.031,2.484l-3.655,0.609V20l3.651,0.646c0.22,0.887,0.57,1.719,1.032,2.483l-2.159,3.019l2.199,2.2
		l3.049-2.135c0.763,0.458,1.592,0.804,2.477,1.021l0.609,3.674h3.111l0.653-3.686c0.878-0.22,1.708-0.571,2.462-1.03l3.068,2.155
		l2.199-2.2l-2.189-3.042c0.453-0.758,0.797-1.582,1.014-2.46L304.706,20v-3.11l-3.701-0.606
		C300.786,15.407,300.442,14.583,299.987,13.829z M292.269,22.806c-2.396,0-4.338-1.943-4.338-4.338s1.941-4.337,4.338-4.337
		c2.395,0,4.336,1.942,4.336,4.337S294.663,22.806,292.269,22.806z"/>
        <path fill="#FFFFFF" d="M315.255,1.314l2.43-1.529l-0.903-2.202l-2.785,0.646c-0.397-0.549-0.882-1.037-1.438-1.456l0.632-2.786
		l-2.194-0.919l-1.506,2.413c-0.688-0.108-1.376-0.111-2.049-0.014l-1.494-2.416l-2.201,0.898l0.604,2.777
		c-0.55,0.4-1.041,0.887-1.463,1.447l-2.758-0.652l-0.916,2.193l2.384,1.539c-0.106,0.689-0.106,1.379-0.006,2.057l-2.411,1.488
		l0.9,2.205l2.779-0.606c0.404,0.547,0.887,1.034,1.447,1.45l-0.652,2.773l2.193,0.915l1.549-2.405
		c0.684,0.104,1.373,0.101,2.041-0.002l1.529,2.428l2.199-0.904l-0.646-2.79c0.541-0.4,1.028-0.882,1.44-1.435l2.804,0.634
		l0.916-2.193l-2.433-1.521C315.353,2.665,315.353,1.983,315.255,1.314z M311.499,3.591c-0.707,1.689-2.65,2.485-4.342,1.778
		c-1.688-0.707-2.485-2.648-1.779-4.342c0.707-1.688,2.651-2.484,4.34-1.777C311.408-0.041,312.205,1.901,311.499,3.591z"/>
</g>
    <polygon fill="#FFFFFF" points="731.063,286.418 717.274,276.629 717.274,282.043 702.274,282.043 702.274,290.793 717.274,290.793
	717.274,296.208 "/>
    <path fill="#FFFFFF" d="M867.185,270.731h-22c-1.65,0-3,1.35-3,3v22c0,1.65,1.35,3,3,3h22c1.65,0,3-1.35,3-3v-22
	C870.185,272.081,868.835,270.731,867.185,270.731z M862.556,288.527l-2.574,2.575l-3.797-3.796l-3.795,3.795l-2.576-2.575
	l3.797-3.796l-3.797-3.795l2.576-2.575l3.795,3.796l3.797-3.797l2.574,2.575l-3.795,3.796L862.556,288.527z"/>
</svg>
