<?xml version="1.0" encoding="utf-8"?>
<!-- Generator: Adobe Illustrator 16.0.0, SVG Export Plug-In . SVG Version: 6.00 Build 0)  -->
<!DOCTYPE svg PUBLIC "-//W3C//DTD SVG 1.1//EN" "http://www.w3.org/Graphics/SVG/1.1/DTD/svg11.dtd">
<svg version="1.1" id="Layer_1" xmlns="http://www.w3.org/2000/svg"  x="0px" y="0px"
	 width="30px" height="29.311px" viewBox="0 0 30 29.311" enable-background="new 0 0 30 29.311" xml:space="preserve">
<g>
	<path fill="#FFFFFF" d="M-1224.205,7.11c0.001-0.017,0.005-0.033,0.005-0.049c0-0.365-0.188-0.687-0.471-0.875l-0.147-3.34
		c-0.008-0.153-0.133-0.429-0.435-0.429c-0.302,0-0.425,0.276-0.435,0.429l-0.172,3.363c-0.266,0.19-0.44,0.5-0.44,0.852
		c0,0.58,0.47,1.05,1.05,1.05c0.042,0,0.083-0.008,0.125-0.013l2.026,1.795c0.116,0.103,0.412,0.196,0.656-0.047
		c0.244-0.245,0.148-0.54,0.048-0.655L-1224.205,7.11z"/>
	<path fill="#FFFFFF" d="M-1225.25-1.501c-4.729,0-8.563,3.833-8.563,8.563s3.833,8.563,8.563,8.563
		c4.729,0,8.563-3.833,8.563-8.563S-1220.521-1.501-1225.25-1.501z M-1225.25,13.953c-3.8,0-6.892-3.091-6.892-6.892
		s3.092-6.892,6.892-6.892c3.801,0,6.893,3.091,6.893,6.892S-1221.449,13.953-1225.25,13.953z"/>
</g>
<g>
	<path fill="#FFFFFF" d="M-394.646-4.358h-15.063c-1.782,0-3.229,1.446-3.229,3.228v5.581l2.152-1.865V-1.13
		c0-0.593,0.483-1.075,1.076-1.075h15.063c0.593,0,1.076,0.482,1.076,1.075V20.39c0,0.594-0.483,1.076-1.076,1.076h-15.063
		c-0.593,0-1.076-0.482-1.076-1.076v-3.715l-2.152-1.865v5.58c0,1.782,1.446,3.229,3.229,3.229h15.063
		c1.783,0,3.229-1.446,3.229-3.229V-1.13C-391.418-2.912-392.863-4.358-394.646-4.358z"/>
	<path fill="#FFFFFF" d="M-406.482,2.636l-8.07,6.994l8.07,6.994c0,0,1.076,0.303,1.076-1.076c0-0.313,0-1.352,0-2.689h6.456
		c0.594,0,1.076-0.484,1.076-1.077V7.478c0-0.593-0.482-1.076-1.076-1.076h-6.456c0-1.287,0-2.319,0-2.724
		C-405.406,2.232-406.482,2.636-406.482,2.636z"/>
</g>
<g>
	<rect x="-280.5" y="1.909" fill="#FFFFFF" width="2.688" height="25.905"/>
	<rect x="-273.78" y="1.909" fill="#FFFFFF" width="2.688" height="25.905"/>
	<rect x="-276.469" y="1.909" fill="#FFFFFF" width="1.346" height="25.905"/>
	<rect x="-269.746" y="1.909" fill="#FFFFFF" width="1.343" height="25.905"/>
	<rect x="-251.377" y="1.909" fill="#FFFFFF" width="2.688" height="25.905"/>
	<rect x="-247.345" y="1.909" fill="#FFFFFF" width="1.345" height="25.905"/>
	<rect x="-266.443" y="1.909" fill="#FFFFFF" width="2.688" height="25.905"/>
	<rect x="-259.724" y="1.909" fill="#FFFFFF" width="2.688" height="25.905"/>
	<rect x="-262.412" y="1.909" fill="#FFFFFF" width="1.346" height="25.905"/>
	<rect x="-255.689" y="1.909" fill="#FFFFFF" width="1.342" height="25.905"/>
</g>
<g>
	<path fill="#414042" d="M-108.467-3.281c0-0.904-0.736-1.641-1.641-1.641h-8.201c0-2.331-1.016-3.281-3.281-3.281h-6.562
		c-2.266,0-3.281,0.95-3.281,3.281h-8.202c-0.903,0-1.64,0.737-1.64,1.641h-1.642V0h36.091v-3.281H-108.467z"/>
	<path fill="#414042" d="M-139.635,27.887c0,2.715,2.208,4.922,4.922,4.922h19.685c2.714,0,4.921-2.207,4.921-4.922V1.64h-29.527
		V27.887z M-119.949,6.562h3.281v19.686h-3.281V6.562z M-126.511,6.562h3.28v19.686h-3.28V6.562z M-133.072,6.562h3.28v19.686h-3.28
		V6.562z"/>
</g>
<path fill="#FFFFFF" d="M-1074.998,136.081l-2.992-2.031c-0.824-0.557-1.953-0.342-2.51,0.478l-14.643,21.596l-6.73-6.73
	c-0.703-0.701-1.851-0.701-2.555,0l-2.555,2.559c-0.707,0.705-0.707,1.851,0,2.557l10.346,10.35c0.582,0.578,1.49,1.025,2.311,1.025
	s1.647-0.517,2.178-1.29l17.631-26.004C-1073.958,137.767-1074.174,136.64-1074.998,136.081z"/>
<g>
	<path fill="#FFFFFF" d="M-956.093,149.512c-0.382-0.141-0.764-0.276-1.14-0.401c-0.241-0.077-1.752-0.76-0.809-3.632h-0.012
		c2.463-2.537,4.344-6.621,4.344-10.64c0-6.182-4.109-9.42-8.885-9.42c-4.778,0-8.867,3.238-8.867,9.42
		c0,4.035,1.872,8.136,4.351,10.665c0.966,2.534-0.761,3.475-1.124,3.606c-5.002,1.81-10.868,5.106-10.868,8.361
		c0,0.88,0,0.348,0,1.221c0,4.181,7.642,5.315,15.184,5.432c-0.108-0.579-0.108-1.182,0.063-1.769l1.864-6.351
		c0.196-0.672,0.583-1.276,1.12-1.756L-956.093,149.512z"/>
	<path fill="#FFFFFF" d="M-946.523,151.069l-1.46-1.464l0.009-0.009l-1.955-1.954l-8.898,8.818
		c-0.121,0.099-0.227,0.224-0.274,0.385l-1.866,6.358c-0.079,0.28-0.003,0.578,0.201,0.782c0.148,0.151,0.352,0.232,0.557,0.232
		c0.078,0,0.15-0.011,0.225-0.032l6.359-1.868c0.15-0.044,0.268-0.139,0.365-0.25l8.917-8.841l-2.166-2.167L-946.523,151.069z
		 M-957.991,161.952l-0.743-0.745l1.005-3.421l0.429,0.43l2.102,0.172l0.115,2.048l0.514,0.514L-957.991,161.952z"/>
	<polygon fill="#FFFFFF" points="-949.121,146.754 -943.537,152.34 -942.258,151.142 -947.846,145.555 	"/>
	<path fill="#FFFFFF" d="M-940.788,146.673l-2.678-2.676c-0.737-0.739-1.932-0.747-2.663-0.015l-0.82,0.83l5.353,5.355l0.823-0.832
		C-940.043,148.606-940.048,147.414-940.788,146.673z"/>
</g>
<g>
	<path fill="#FFFFFF" d="M-551.602,135.393c0.867,1.536,6.413,2.307,9.13,2.208c2.717-0.097,8.277-1.317,8.07-3.649
		c-0.386-4.322,2.248-10.102,2.77-10.906c1.057-1.634,1.143-5.042-3.325-3.419c-1.046,0.381-3.512,2.943-4.558-0.096
		c-1.882-5.463-6.251-3.943-7.214-0.38c-0.666,2.472-3.326,2.658-6.363,2.375c-3.558-0.334-4.014,1.894-2.832,3.778
		C-555.291,126.306-552.597,133.628-551.602,135.393z"/>
	<path fill="#FFFFFF" d="M-532.645,138.314c-0.593-0.169-1.66,2.746-9.636,3.035c-7.209,0.263-9.295-2.376-9.716-2.229
		c-10.671,3.708-19.668,14.597-19.668,25.632c0,14.195,8.102,17.929,30.631,17.929s30.631-3.824,30.631-17.929
		C-510.402,152.885-521.366,141.524-532.645,138.314z M-540.754,169.66v2.904c0,0.215-0.179,0.392-0.394,0.392h-2.608
		c-0.218,0-0.395-0.177-0.395-0.392v-2.669c-1.846-0.114-3.735-0.651-4.9-1.393c-0.147-0.095-0.213-0.271-0.167-0.439l0.846-2.981
		c0.033-0.117,0.121-0.214,0.232-0.259c0.122-0.041,0.244-0.033,0.35,0.03c0.826,0.494,2.532,1.324,4.692,1.324
		c1.803,0,2.966-0.808,2.966-2.056c0-1.188-0.895-1.973-3.191-2.799c-2.812-1.027-5.69-2.542-5.69-5.989
		c0-2.858,1.929-5.016,5.053-5.689v-2.72c0-0.217,0.177-0.395,0.396-0.395h2.572c0.215,0,0.392,0.178,0.392,0.395v2.513
		c1.971,0.121,3.282,0.673,4.116,1.088c0.17,0.086,0.252,0.281,0.199,0.464l-0.848,2.885c-0.03,0.111-0.114,0.202-0.22,0.252
		c-0.106,0.047-0.226,0.042-0.332-0.01c-0.826-0.414-2.11-1.059-4.093-1.059c-1.622,0-2.588,0.677-2.588,1.806
		c0,1.001,0.901,1.685,3.575,2.71c3.721,1.396,5.308,3.249,5.308,6.205C-535.483,166.724-537.544,169.003-540.754,169.66z"/>
</g>
<g>
	<g>
		<path d="M-400.449,153.841c0,0.546-0.443,0.812-0.989,0.594l-1.978-0.792c-0.546-0.218-0.989-0.838-0.989-1.384v-3.667
			l3.956-0.989V153.841z"/>
	</g>
</g>
<g>
	<path d="M-400.449,147.603h-3.956l-4.449-4.944c0-0.546,0.442-0.988,0.988-0.988h10.878c0.546,0,0.988,0.442,0.988,0.988
		L-400.449,147.603z"/>
</g>
<g>
	<path fill="#FFFFFF" d="M-245.833,125.103L-265,139.478v-9.584c-10.576,0-19.167,8.601-19.167,19.166
		c0,3.566,1.066,6.931,2.827,9.859l-7.759,5.822c-2.967-4.576-4.651-9.99-4.651-15.682c0-15.854,12.896-28.75,28.75-28.75v-9.582
		L-245.833,125.103z"/>
	<path fill="#FFFFFF" d="M-265,168.228c10.576,0,19.167-8.597,19.167-19.168c0-3.564-1.066-6.929-2.827-9.854l7.759-5.821
		c2.967,4.567,4.651,9.985,4.651,15.675c0,15.854-12.896,28.75-28.75,28.75v9.584l-19.167-14.375L-265,158.644V168.228z"/>
</g>
<path fill="#414042" d="M-113.348,142.765l8.692,8.705c2.801,2.799-3.315,5.312-3.315,12.229c0,5.254,8.473,11.036,8.473,2.12
	c0-2.749,0-7.604,0-10.354C-99.5,145.06-113.348,142.765-113.348,142.765z"/>
<path fill="#414042" stroke="#000000" stroke-width="2" stroke-linecap="round" stroke-linejoin="round" stroke-miterlimit="10" d="
	M-116.844,144.553c0-6.431-3.542-15.609-9.539-15.609c-5.998,0-7.805,5.854-7.805,8.672"/>
<path fill="#414042" d="M-118.754,141.613c0.256,1.721,0.203,3.164,0.113,3.882c0.821,0.542,1.36,1.471,1.36,2.527
	c0,1.674-1.357,3.032-3.034,3.032s-3.031-1.358-3.031-3.032c0-1.08,0.568-2.022,1.417-2.561c0.449-1.318,1.061-3.896,0.104-6.916
	l-1.751-1.756c-2.461-2.463-4.869-0.159-4.869-0.159l-15.488,15.483c-1.622,1.626,1.418,7.301,6.794,12.673
	c5.371,5.376,11.045,8.418,12.671,6.792c0,0,14.613-14.617,15.393-15.393c0.775-0.777,2.048-2.839,0.189-4.697
	C-110.743,149.631-118.754,141.613-118.754,141.613z"/>
<g>
	<path fill="#FFFFFF" d="M-668.528,137.48c0.561-0.048,1.121-0.085,1.695-0.085c1.06,0,2.085,0.109,3.097,0.273
		c0.26-0.656,0.403-1.333,0.403-2.023c0-0.622-0.13-1.228-0.335-1.818C-664.851,135.214-666.525,136.438-668.528,137.48z"/>
	<path fill="#FFFFFF" d="M-684.333,146.145c0.472,0,0.937-0.021,1.408-0.034c1.579-2.399,3.678-4.416,6.139-5.909
		c-2.358,0.434-4.881,0.693-7.547,0.693c-9.297,0-17.104-2.864-20.665-7.068c-0.212,0.591-0.335,1.196-0.335,1.818
		C-705.333,141.442-695.934,146.145-684.333,146.145z"/>
	<path fill="#FFFFFF" d="M-685.741,153.111c0.342-1.853,0.957-3.605,1.791-5.229c-0.13,0-0.253,0.014-0.383,0.014
		c-9.297,0-17.104-2.864-20.665-7.068c-0.212,0.591-0.335,1.196-0.335,1.818C-705.333,148.203-696.679,152.745-685.741,153.111z"/>
	<path fill="#FFFFFF" d="M-684.333,139.145c11.594,0,21-4.703,21-10.5s-9.406-10.5-21-10.5c-11.601,0-21,4.703-21,10.5
		S-695.934,139.145-684.333,139.145z M-681.435,130.156c-0.588-0.191-1.9-0.424-3.924-0.711c-1.825-0.253-3.247-0.506-4.272-0.752
		s-1.859-0.591-2.502-1.035c-0.636-0.448-0.957-0.968-0.957-1.556c0-0.775,0.574-1.477,1.716-2.096
		c1.142-0.618,2.939-0.997,5.394-1.138v-1.224h3.315v1.224c3.705,0.178,6.104,1.019,7.191,2.516l-4.566,0.752
		c-0.889-1.028-2.263-1.545-4.129-1.545c-0.937,0-1.688,0.116-2.256,0.345c-0.566,0.229-0.848,0.51-0.848,0.838
		c0,0.331,0.273,0.588,0.82,0.766c0.54,0.178,1.716,0.4,3.508,0.663c1.969,0.287,3.513,0.561,4.627,0.813
		c1.121,0.256,2.018,0.611,2.687,1.06c0.663,0.451,0.999,0.978,0.999,1.579c0,0.93-0.691,1.699-2.065,2.317
		c-1.38,0.615-3.37,0.981-5.968,1.091v1.582h-3.314v-1.576c-4.342-0.177-7.021-1.186-8.061-3.024l5.127-0.533
		c0.479,1.155,2.051,1.733,4.717,1.733c1.252,0,2.174-0.123,2.762-0.373c0.588-0.246,0.882-0.547,0.882-0.896
		C-680.553,130.614-680.847,130.34-681.435,130.156z"/>
	<path fill="#FFFFFF" d="M-685.755,160.111c-0.205-1.128-0.328-2.283-0.328-3.466c0-0.611,0.034-1.217,0.089-1.814
		c-8.545-0.321-15.654-3.056-19.004-7.004c-0.212,0.591-0.335,1.196-0.335,1.818C-705.333,155.203-696.686,159.742-685.755,160.111z
		"/>
	<path fill="#FFFFFF" d="M-666.833,139.145c-9.673,0-17.5,7.841-17.5,17.5c0,9.67,7.827,17.5,17.5,17.5c9.666,0,17.5-7.83,17.5-17.5
		C-649.333,146.986-657.167,139.145-666.833,139.145z M-655.583,159.52h-21.833v-4.333h21.833V159.52z"/>
	<path fill="#FFFFFF" d="M-684.333,167.145c0.458,0,0.909-0.021,1.367-0.034c-1.045-1.604-1.853-3.37-2.379-5.253
		c-8.839-0.206-16.222-2.984-19.653-7.031c-0.212,0.591-0.335,1.196-0.335,1.818C-705.333,162.442-695.934,167.145-684.333,167.145z
		"/>
</g>
<g>
	<path fill="#FFFFFF" d="M-825.408,152.444c0.342-1.853,0.957-3.605,1.791-5.229c-0.13,0-0.253,0.014-0.383,0.014
		c-9.297,0-17.104-2.864-20.665-7.068c-0.212,0.591-0.335,1.196-0.335,1.818C-845,147.536-836.346,152.078-825.408,152.444z"/>
	<path fill="#FFFFFF" d="M-824,145.478c0.472,0,0.937-0.021,1.408-0.034c1.579-2.399,3.678-4.416,6.139-5.909
		c-2.358,0.434-4.881,0.693-7.547,0.693c-9.297,0-17.104-2.864-20.665-7.068c-0.212,0.591-0.335,1.196-0.335,1.818
		C-845,140.775-835.601,145.478-824,145.478z"/>
	<path fill="#FFFFFF" d="M-808.195,136.813c0.561-0.048,1.121-0.085,1.695-0.085c1.06,0,2.085,0.109,3.097,0.273
		c0.26-0.656,0.403-1.333,0.403-2.023c0-0.622-0.13-1.228-0.335-1.818C-804.518,134.547-806.192,135.771-808.195,136.813z"/>
	<path fill="#FFFFFF" d="M-824,138.478c11.594,0,21-4.703,21-10.5s-9.406-10.5-21-10.5c-11.601,0-21,4.703-21,10.5
		S-835.601,138.478-824,138.478z M-821.102,129.489c-0.588-0.191-1.9-0.424-3.924-0.711c-1.825-0.253-3.247-0.506-4.272-0.752
		s-1.859-0.591-2.502-1.035c-0.636-0.448-0.957-0.968-0.957-1.556c0-0.775,0.574-1.477,1.716-2.096
		c1.142-0.618,2.939-0.997,5.394-1.138v-1.224h3.315v1.224c3.705,0.178,6.104,1.019,7.191,2.516l-4.566,0.752
		c-0.889-1.028-2.263-1.545-4.129-1.545c-0.937,0-1.688,0.116-2.256,0.345c-0.566,0.229-0.848,0.51-0.848,0.838
		c0,0.331,0.273,0.588,0.82,0.766c0.54,0.178,1.716,0.4,3.508,0.663c1.969,0.287,3.513,0.561,4.627,0.813
		c1.121,0.256,2.018,0.611,2.687,1.06c0.663,0.451,0.999,0.978,0.999,1.579c0,0.93-0.691,1.699-2.065,2.317
		c-1.38,0.615-3.37,0.981-5.968,1.091v1.582h-3.314v-1.576c-4.342-0.177-7.021-1.186-8.061-3.024l5.127-0.533
		c0.479,1.155,2.051,1.733,4.717,1.733c1.252,0,2.174-0.123,2.762-0.373c0.588-0.246,0.882-0.547,0.882-0.896
		C-820.22,129.947-820.514,129.673-821.102,129.489z"/>
	<path fill="#FFFFFF" d="M-806.5,138.478c-9.673,0-17.5,7.841-17.5,17.5c0,9.67,7.827,17.5,17.5,17.5c9.666,0,17.5-7.83,17.5-17.5
		C-789,146.319-796.834,138.478-806.5,138.478z M-795.25,158.853H-804v8.75h-4.333v-8.75h-8.75v-4.333h8.75v-8.75H-804v8.75h8.75
		V158.853z"/>
	<path fill="#FFFFFF" d="M-825.422,159.444c-0.205-1.128-0.328-2.283-0.328-3.466c0-0.611,0.034-1.217,0.089-1.814
		c-8.545-0.321-15.654-3.056-19.004-7.004c-0.212,0.591-0.335,1.196-0.335,1.818C-845,154.536-836.353,159.075-825.422,159.444z"/>
	<path fill="#FFFFFF" d="M-824,166.478c0.458,0,0.909-0.021,1.367-0.034c-1.045-1.604-1.853-3.37-2.379-5.253
		c-8.839-0.206-16.222-2.984-19.653-7.031c-0.212,0.591-0.335,1.196-0.335,1.818C-845,161.775-835.601,166.478-824,166.478z"/>
</g>
<g>
	<path fill="#414042" d="M-1217.503,145.418h-2.615v-6.103h2.615V145.418z M-1210.528,142.803v14.82
		c0,1.445-1.171,2.615-2.615,2.615h-17.436c-1.444,0-2.615-1.17-2.615-2.615v-17.436c0-1.444,1.171-2.615,2.615-2.615h14.821
		c0.722,0,1.12,0.037,3.156,2.074C-1210.566,141.683-1210.528,142.082-1210.528,142.803z M-1228.836,145.418
		c0,0.48,0.392,0.872,0.872,0.872h11.333c0.48,0,0.872-0.392,0.872-0.872v-6.103c0-0.479-0.392-0.871-0.872-0.871h-11.333
		c-0.48,0-0.872,0.392-0.872,0.871V145.418z M-1213.144,149.778c0-0.48-0.392-0.872-0.872-0.872h-15.692
		c-0.48,0-0.872,0.392-0.872,0.872v8.718c0,0.48,0.392,0.872,0.872,0.872h15.692c0.48,0,0.872-0.392,0.872-0.872V149.778z"/>
</g>
<g>
	<path fill="#FFFFFF" d="M24.135,135.345c-0.445,0-0.808-0.363-0.808-0.809v-2.426c0-0.446,0.362-0.809,0.808-0.809l0,0
		c0.446,0,0.81,0.362,0.81,0.809v2.426C24.944,134.982,24.581,135.345,24.135,135.345L24.135,135.345z"/>
</g>
<g>
	<path fill="#FFFFFF" d="M37.074,132.919h-1.617v1.617c0,0.892-0.726,1.618-1.617,1.618c-0.893,0-1.617-0.727-1.617-1.618v-1.617
		h-6.47v1.617c0,0.892-0.726,1.618-1.618,1.618c-0.892,0-1.617-0.727-1.617-1.618v-1.617H20.9c-1.34,0-2.426,1.086-2.426,2.426
		v14.557c0,1.34,1.086,2.426,2.426,2.426h16.174c1.339,0,2.426-1.086,2.426-2.426v-14.557
		C39.5,134.005,38.413,132.919,37.074,132.919z M37.883,149.902c0,0.445-0.363,0.809-0.809,0.809H20.9
		c-0.445,0-0.809-0.363-0.809-0.809v-11.321h17.791V149.902z"/>
</g>
<g>
	<path fill="#FFFFFF" d="M33.84,135.345c-0.446,0-0.81-0.363-0.81-0.809v-2.426c0-0.446,0.363-0.809,0.81-0.809l0,0
		c0.445,0,0.808,0.362,0.808,0.809v2.426C34.647,134.982,34.285,135.345,33.84,135.345L33.84,135.345z"/>
</g>
<g>
	<path fill="#FFFFFF" d="M35.861,149.093H22.113c-0.223,0-0.404-0.182-0.404-0.404v-8.087c0-0.224,0.182-0.404,0.404-0.404h13.748
		c0.223,0,0.404,0.181,0.404,0.404v8.087C36.266,148.912,36.084,149.093,35.861,149.093z M22.518,148.285h12.939v-7.278H22.518
		V148.285z"/>
</g>
<g>
	<path fill="#FFFFFF" d="M32.627,149.093c-0.225,0-0.404-0.182-0.404-0.404v-8.087c0-0.224,0.18-0.404,0.404-0.404
		c0.223,0,0.403,0.181,0.403,0.404v8.087C33.03,148.912,32.85,149.093,32.627,149.093z"/>
</g>
<g>
	<path fill="#FFFFFF" d="M29.392,149.093c-0.224,0-0.404-0.182-0.404-0.404v-8.087c0-0.224,0.181-0.404,0.404-0.404
		s0.404,0.181,0.404,0.404v8.087C29.796,148.912,29.615,149.093,29.392,149.093z"/>
</g>
<g>
	<path fill="#FFFFFF" d="M25.348,149.093c-0.223,0-0.403-0.182-0.403-0.404v-8.087c0-0.224,0.181-0.404,0.403-0.404
		c0.225,0,0.405,0.181,0.405,0.404v8.087C25.753,148.912,25.572,149.093,25.348,149.093z"/>
</g>
<g>
	<path fill="#FFFFFF" d="M35.861,146.667H22.113c-0.223,0-0.404-0.181-0.404-0.404s0.182-0.404,0.404-0.404h13.748
		c0.223,0,0.404,0.181,0.404,0.404S36.084,146.667,35.861,146.667z"/>
</g>
<g>
	<path fill="#FFFFFF" d="M35.861,143.432H22.113c-0.223,0-0.404-0.181-0.404-0.404s0.182-0.404,0.404-0.404h13.748
		c0.223,0,0.404,0.181,0.404,0.404S36.084,143.432,35.861,143.432z"/>
</g>
<g>
	<path fill="#414042" d="M-1228.554,280.834c-0.225-0.095-0.484-0.041-0.657,0.13l-7.216,5.669c-0.235,0.233-0.235,0.617,0,0.853
		l7.216,5.641c0.115,0.117,0.27,0.178,0.426,0.178c0.078,0,0.157-0.016,0.231-0.045c0.226-0.094,0.36-0.314,0.36-0.558v-3.379
		c7.717,0,11.091,2.176,10.577,9.108c3.27-11.091-3.005-13.598-10.577-13.598v-3.443
		C-1228.193,281.147-1228.328,280.927-1228.554,280.834z"/>
</g>
<path opacity="0.3" fill="#F1F2F2" d="M-1084.734,258.811h-18.878c-2.526,2.46-4.102,5.893-4.102,9.697
	c0,7.476,6.064,13.541,13.541,13.541s13.539-6.065,13.539-13.541C-1080.634,264.704-1082.208,261.271-1084.734,258.811z
	 M-1092.131,274.64h-4.087v-8.176h-3.193l4.089-4.088h3.191V274.64z"/>
<path opacity="0.3" fill="#F1F2F2" d="M-1044.603,287.31c-1.598-2.076-5.188-3.809-12.475,0.495
	c0.676-3.027-1.729-4.898-4.566-4.898c-2.516,0-5.453,0.651-7.788,3.022c-3.354-4.415-6.807-3.89-13.52,0.275
	c-2.56,1.588-4.815,2.946-6.495,3.895c-0.447,0.254-0.807,0.444-1.166,0.635c0.658,0.138,1.325,0.256,2.06,0.256
	c9.421,0,16.861,0,16.861,8.177c0,6.282-7.296,8.091-11.157,8.168h-17.456c-7.193,0-14.235-7.497-14.235-7.497
	s8.314,3.408,14.235,3.408h17.417c0.027,0,7.109-0.279,7.109-4.079c0-3.478-1.913-4.089-12.774-4.089
	c-7.089,0-14.259-4.184-14.259-4.184s-7.179-5.241-9.382-6.618c-5.212-3.257-9.38-6.347-18.486-2.762
	c-2.394,0.943-5.962,2.506-9.32,4.01v24.209l0.035,0.078h70.911c8.931-5.866,18.791-12.43,20.479-13.623
	C-1043.935,292.915-1042.49,290.056-1044.603,287.31z"/>
<g opacity="0.3">
	<path fill="#FFFFFF" d="M-682.716,281.417c-8.01,0-14.68,2.592-14.68,2.592l6.607,16.963c0,0,5.195-1.848,8.773-1.848
		s7.124,0.523,7.124,0.523l-4.798-18.038C-679.688,281.61-681.044,281.417-682.716,281.417z"/>
	<path fill="#FFFFFF" d="M-657.099,288.735c-4.652,0-9.046-2.242-9.046-2.242l3.708,16.252c0,0,3.712,0.685,6.258,0.685
		s5.723-0.577,5.723-0.577l-1.205-14.88C-651.661,287.972-654.118,288.735-657.099,288.735z"/>
	<g>
		<path fill="#FFFFFF" d="M-710.327,308.823h22.524l-2.985-7.851c-4.243,1.635-8.599,4.814-11.426,7.115l-6.383-17.817
			c5.615-4.243,11.201-6.261,11.201-6.261l-4.745-12.184c4.321-1.772,9.683-3.14,15.99-3.14c1.089,0,2.104,0.092,3.084,0.228
			l3.378,12.696c3.581,0,13.544,4.883,13.544,4.883l-2.804-12.272c3.086,1.312,6.415,2.353,10.421,2.353
			c2.009,0,3.983-0.281,5.884-0.724l0.982,12.123c0,0,3.844-0.972,8.765-3.902v16.373c-4.143,1.771-7.56,2.409-7.56,2.409
			l0.474,5.971h14.973v-44.08c0-1.525-0.878-2.915-2.261-3.566c-1.37-0.647-3.008-0.45-4.187,0.521
			c-2.363,1.944-10.038,6.989-17.07,6.989c-3.859,0-7.04-1.517-10.726-3.273c-4.528-2.164-9.662-4.613-16.897-4.613
			c-21.366,0-33.716,13.123-34.231,13.683c-0.994,1.078-1.31,2.618-0.813,4.001L-710.327,308.823z"/>
		<path fill="#FFFFFF" d="M-662.437,302.745c-3.708-0.967-9.709-2.712-12.454-3.097l2.44,9.175h11.402L-662.437,302.745z"/>
	</g>
	<path fill="#FFFFFF" d="M-725.437,278.39c1.289-0.952,1.929-2.632,1.457-4.263c-0.604-2.088-2.8-3.293-4.887-2.691l-0.138,0.04
		v20.263l6.164,17.084h8.384L-725.437,278.39z"/>
</g>
<path opacity="0.3" fill="#FFFFFF" d="M-838.281,300.021c-5.074,1.824-10.522,4.335-14.976,7.208v10.582h65.645
	c-1.047-1.583-2.159-3.073-3.348-4.427c-4.104-5.483-13.851-10.425-22.813-13.363c-0.53-0.174-3.9-1.676-1.789-8.059h-0.034
	c5.491-5.607,9.68-14.649,9.68-23.552c0-13.677-9.16-20.85-19.795-20.85c-10.647,0-19.753,7.173-19.753,20.85
	c0,8.936,4.172,18.02,9.68,23.615C-833.629,297.643-837.475,299.724-838.281,300.021z"/>
<path fill="#9ECC5E" d="M-961.53,257.347v11.391h-4.159v-8.321h-3.251l3.069-3.069h-10.518c-0.642,1.592-1.004,3.327-1.004,5.149
	c0,7.61,6.169,13.782,13.782,13.782c7.607,0,13.783-6.172,13.783-13.782c0-1.822-0.362-3.558-1.005-5.149H-961.53z"/>
<path fill="#9ECC5E" d="M-913.151,281.637c-1.626-2.113-5.283-3.878-12.702,0.504c0.69-3.082-1.755-4.987-4.649-4.987
	c-2.559,0-5.549,0.662-7.922,3.077c-3.414-4.495-6.932-3.96-13.768,0.28c-2.6,1.616-4.9,2.998-6.605,3.966
	c-0.456,0.256-0.821,0.45-1.188,0.646c0.667,0.138,1.35,0.26,2.097,0.26c9.589,0,17.163,0,17.163,8.321
	c0,6.396-7.427,8.236-11.359,8.313h-17.767c-7.322,0-14.489-7.631-14.489-7.631s8.459,3.47,14.489,3.47h17.726
	c0.031,0,7.24-0.283,7.24-4.152c0-3.539-1.951-4.16-13.003-4.16c-7.216,0-14.514-4.259-14.514-4.259s-7.306-5.335-9.548-6.738
	c-5.309-3.316-9.55-6.461-18.822-2.812c-2.215,0.874-5.422,2.269-8.557,3.666v27.115l1.69,3.749l6.028-3.917
	c3.333-2.121,5.186-2.485,9.493-0.268c1.767,0.907,5.082,2.625,8.561,4.422h36.375c9.774-6.315,27.636-18.17,29.983-19.829
	C-912.477,287.341-911.006,284.432-913.151,281.637z"/>
<rect x="-421.798" y="268.462" fill="#F5891F" width="38.539" height="39.02"/>
<polygon fill="#FFFFFF" points="-391.153,285.472 -400.028,285.472 -400.028,276.597 -405.028,276.597 -405.028,285.472 
	-413.903,285.472 -413.903,290.472 -405.028,290.472 -405.028,299.347 -400.028,299.347 -400.028,290.472 -391.153,290.472 "/>
<g>
	<path fill="#F58720" d="M-518.525,297.849l-17.274-29.918c-2.112-3.658-5.565-3.658-7.679,0l-17.274,29.918
		c-2.112,3.662-0.384,6.648,3.837,6.648h34.553C-518.142,304.498-516.414,301.511-518.525,297.849z"/>
</g>
<g>
	<path fill="#FFFFFF" d="M-538.049,290.208c0.432-4.613,1.729-10.956,1.729-11.817c0-1.003-0.311-1.837-0.932-2.504
		c-0.625-0.665-1.418-0.999-2.387-0.999s-1.762,0.338-2.387,1.013c-0.62,0.672-0.932,1.502-0.932,2.49
		c0,0.861,1.407,7.204,1.786,11.817H-538.049z"/>
	<path fill="#FFFFFF" d="M-537.296,293.181c-0.657-0.654-1.438-0.981-2.343-0.981s-1.686,0.327-2.342,0.981
		c-0.654,0.655-0.981,1.437-0.981,2.34c0,0.907,0.327,1.682,0.981,2.319c0.656,0.639,1.438,0.958,2.342,0.958
		s1.686-0.319,2.343-0.958c0.654-0.638,0.98-1.412,0.98-2.319C-536.315,294.618-536.642,293.836-537.296,293.181z"/>
</g>
<polyline fill="none" stroke="#414042" stroke-width="1.9501" stroke-linecap="round" stroke-linejoin="round" stroke-miterlimit="10" points="
	11.966,24.62 2.662,27.351 5.392,18.047 "/>
<g>
	<polygon fill="#414042" points="7.506,20.144 9.399,20.569 9.671,22.309 22.702,9.29 20.537,7.124 	"/>
	<polygon fill="#414042" points="24.132,10.693 11,23.811 12.687,25.499 25.87,12.431 	"/>
	<polygon fill="#414042" points="19.251,5.812 17.698,4.259 4.516,17.326 6.12,18.93 	"/>
</g>
<polygon fill="#414042" points="27.052,11.132 18.88,2.96 20.749,1.208 28.921,9.38 "/>
<polyline fill="none" stroke="#ED1C24" stroke-width="1.9501" stroke-linecap="round" stroke-linejoin="round" stroke-miterlimit="10" points="
	150.466,24.62 141.162,27.351 143.892,18.047 "/>
<g>
	<polygon fill="#ED1C24" points="146.006,20.144 147.899,20.569 148.171,22.309 161.202,9.29 159.037,7.124 	"/>
	<polygon fill="#ED1C24" points="162.632,10.693 149.5,23.811 151.187,25.499 164.37,12.431 	"/>
	<polygon fill="#ED1C24" points="157.751,5.812 156.198,4.259 143.016,17.326 144.62,18.93 	"/>
</g>
<polygon fill="#ED1C24" points="165.552,11.132 157.38,2.96 159.249,1.208 167.421,9.38 "/>
<polyline fill="none" stroke="#AAA9A9" stroke-width="1.9501" stroke-linecap="round" stroke-linejoin="round" stroke-miterlimit="10" points="
	285.133,24.62 275.829,27.351 278.559,18.047 "/>
<g>
	<polygon fill="#AAA9A9" points="280.673,20.144 282.566,20.569 282.838,22.309 295.869,9.29 293.704,7.124 	"/>
	<polygon fill="#AAA9A9" points="297.299,10.693 284.167,23.811 285.854,25.499 299.037,12.431 	"/>
	<polygon fill="#AAA9A9" points="292.418,5.812 290.865,4.259 277.683,17.326 279.287,18.93 	"/>
</g>
<polygon fill="#AAA9A9" points="300.219,11.132 292.047,2.96 293.916,1.208 302.088,9.38 "/>
<g>
	<path fill="#FFFFFF" d="M-803.905,23.12l-6.411-6.412c-0.808-0.809-2.021-0.945-2.981-0.436l-1.217-1.219
		c1.839-2.322,2.944-5.254,2.944-8.447c0-7.53-6.104-13.633-13.633-13.633c-7.531,0-13.634,6.103-13.634,13.633
		c0,7.531,6.103,13.634,13.634,13.634c3.192,0,6.123-1.105,8.445-2.943l1.218,1.217c-0.509,0.957-0.37,2.17,0.438,2.979l6.412,6.412
		c0.991,0.992,2.597,0.992,3.589,0l1.196-1.195C-802.915,25.717-802.915,24.11-803.905,23.12z M-836.316,6.606
		c0-6.138,4.975-11.111,11.113-11.111s11.111,4.974,11.111,11.111c0,6.138-4.973,11.111-11.111,11.111
		S-836.316,12.745-836.316,6.606z"/>
</g>
<g>
	<path fill="#FFFFFF" d="M-1066.454,13.361c-0.646-0.839-2.1-1.541-5.047,0.2c0.273-1.226-0.698-1.981-1.848-1.981
		c-1.018,0-2.205,0.262-3.148,1.222c-1.357-1.785-2.755-1.573-5.472,0.112c-1.033,0.642-1.948,1.191-2.625,1.575
		c-0.181,0.103-0.325,0.18-0.472,0.257c0.266,0.056,0.537,0.104,0.834,0.104c3.81,0,6.82,0,6.82,3.307
		c0,2.542-2.952,3.274-4.516,3.305h-7.059c-2.91,0-5.759-3.032-5.759-3.032s3.362,1.377,5.759,1.377h7.043
		c0.012,0,2.877-0.11,2.877-1.649c0-1.405-0.775-1.652-5.166-1.652c-2.868,0-5.769-1.692-5.769-1.692s-2.903-2.121-3.795-2.678
		c-2.108-1.317-3.794-2.568-7.479-1.117c-2.331,0.919-7.431,3.292-7.431,3.292l4.702,10.43l2.396-1.556
		c1.324-0.844,2.061-0.989,3.771-0.107c1.66,0.853,6.76,3.504,8.033,4.122c3.916,1.9,5.599,0.199,7.49-0.892
		c1.615-0.931,13.049-8.504,14.25-9.353C-1066.186,15.627-1065.601,14.471-1066.454,13.361z"/>
	<path fill="#FFFFFF" d="M-1086.505,11.231c3.021,0,5.477-2.452,5.477-5.478c0-3.023-2.455-5.478-5.477-5.478
		c-3.027,0-5.479,2.454-5.479,5.478C-1091.983,8.779-1089.532,11.231-1086.505,11.231z M-1086.971,3.274h1.292v4.961h-1.654V4.926
		h-1.291L-1086.971,3.274z"/>
	<path fill="#FFFFFF" d="M-1079.911,1.31c0.007,0,0.014,0.001,0.02,0.001c2.112,0,3.824-1.713,3.824-3.825
		c0-2.11-1.712-3.823-3.824-3.823s-3.823,1.713-3.823,3.823c0,0.305,0.041,0.596,0.11,0.876
		C-1082.098-1.042-1080.806-0.015-1079.911,1.31z M-1080.218-4.244h0.9v3.461h-1.152V-3.09h-0.9L-1080.218-4.244z"/>
</g>
<g>
	<path fill="#FFFFFF" d="M-532.22,25.278h-12.037c-4.215,0-7.445-2.48-8.229-6.32c-0.466-2.286-2.47-12.155-3.017-15.082
		c-0.299-1.604-1.061-2.672-3.8-2.672c-1.246,0-2.257-1.011-2.257-2.257s1.011-2.257,2.257-2.257c4.545,0,7.471,2.257,8.237,6.355
		c0.541,2.897,2.536,12.73,3.002,15.011c0.48,2.356,2.592,2.707,3.807,2.707h11.443c1.23-1.32,4.031-6.412,6.076-10.743
		c0.531-1.127,1.877-1.608,3.004-1.076c1.127,0.531,1.609,1.876,1.078,3.004C-528.95,25.278-530.997,25.278-532.22,25.278z"/>
</g>
<g>
	<circle fill="#FFFFFF" cx="-545.761" cy="30.543" r="3.762"/>
</g>
<g>
	<circle fill="#FFFFFF" cx="-532.22" cy="30.543" r="3.762"/>
</g>
<g>
	<path fill="#FFFFFF" d="M-538.456,14.509c-0.152,0.122-0.335,0.181-0.52,0.181c-0.186,0-0.371-0.059-0.52-0.181
		c-0.149-0.116-4.283-4.121-6.524-7.452c-0.173-0.258-0.188-0.591-0.043-0.863c0.146-0.274,0.431-0.445,0.741-0.445h3.393
		c0,0,0.28-6.456,0.493-6.755c0.312-0.444,1.615-0.743,2.458-0.743c0.841,0,2.122,0.299,2.433,0.743
		c0.212,0.299,0.54,6.755,0.54,6.755h3.349c0.309,0,0.594,0.171,0.737,0.445c0.146,0.272,0.131,0.605-0.043,0.863
		C-534.202,10.388-538.306,14.393-538.456,14.509z"/>
</g>
<path fill="#FFFFFF" d="M-948.82,0.08h-20.718c-0.713,0-1.295,0.582-1.295,1.295c0,0,0,9.064,0,11.654s-2.59,2.59-2.59,2.59h-6.474
	c-0.714,0-1.295,0.582-1.295,1.295v10.358c0,0.714,0.581,1.295,1.295,1.295h31.076c0.713,0,1.295-0.581,1.295-1.295V1.375
	C-947.525,0.662-948.107,0.08-948.82,0.08z M-952.705,15.619c0,1.858-1.73,5.18-5.18,5.18h-4.643l2.321,2.321
	c0.506,0.506,0.506,1.325,0,1.831c-0.253,0.253-0.585,0.38-0.915,0.38c-0.332,0-0.663-0.127-0.916-0.38l-4.531-4.532
	c-0.506-0.506-0.506-1.325,0-1.831l4.531-4.532c0.506-0.506,1.325-0.506,1.831,0s0.506,1.326,0,1.831l-2.321,2.322h4.643
	c1.811,0,2.59-1.965,2.59-2.59v-2.59c0-0.716,0.58-1.295,1.295-1.295s1.295,0.579,1.295,1.295V15.619z"/>
<g>
	<path fill="#FFFFFF" d="M-681.204,13.909l2.158-3.076l-2.199-2.197l-3.033,2.184c-0.76-0.459-1.588-0.809-2.47-1.027l-0.646-3.684
		h-3.111l-0.599,3.672c-0.884,0.217-1.716,0.561-2.476,1.016l-3.025-2.16l-2.201,2.197l2.129,3.043
		c-0.459,0.765-0.81,1.595-1.031,2.484l-3.655,0.609v3.11l3.651,0.646c0.22,0.887,0.57,1.719,1.032,2.483l-2.159,3.019l2.199,2.2
		l3.049-2.135c0.763,0.458,1.592,0.804,2.477,1.021l0.609,3.674h3.111l0.653-3.686c0.878-0.22,1.708-0.571,2.462-1.03l3.068,2.155
		l2.199-2.2l-2.189-3.042c0.453-0.758,0.797-1.582,1.014-2.46l3.701-0.646v-3.11l-3.701-0.606
		C-680.405,15.487-680.749,14.663-681.204,13.909z M-688.923,22.886c-2.396,0-4.338-1.943-4.338-4.338s1.941-4.337,4.338-4.337
		c2.395,0,4.336,1.942,4.336,4.337S-686.528,22.886-688.923,22.886z"/>
	<path fill="#FFFFFF" d="M-665.937,1.394l2.43-1.529l-0.903-2.202l-2.785,0.646c-0.397-0.549-0.882-1.037-1.438-1.456l0.632-2.786
		l-2.194-0.919l-1.506,2.413c-0.688-0.108-1.376-0.111-2.049-0.014l-1.494-2.416l-2.201,0.898l0.604,2.777
		c-0.55,0.4-1.041,0.887-1.463,1.447l-2.758-0.652l-0.916,2.193l2.384,1.539c-0.106,0.689-0.106,1.379-0.006,2.057l-2.411,1.488
		l0.9,2.205l2.779-0.606c0.404,0.547,0.887,1.034,1.447,1.45l-0.652,2.773l2.193,0.915l1.549-2.405
		c0.684,0.104,1.373,0.101,2.041-0.002l1.529,2.428l2.199-0.904l-0.646-2.79c0.541-0.4,1.028-0.882,1.44-1.435l2.804,0.634
		l0.916-2.193l-2.433-1.521C-665.839,2.745-665.839,2.063-665.937,1.394z M-669.692,3.671c-0.707,1.689-2.65,2.485-4.342,1.778
		c-1.688-0.707-2.485-2.648-1.779-4.342c0.707-1.688,2.651-2.484,4.34-1.777C-669.783,0.04-668.986,1.981-669.692,3.671z"/>
</g>
<polygon fill="#FFFFFF" points="-278.917,286.499 -265.128,276.709 -265.128,282.124 -250.128,282.124 -250.128,290.874 
	-265.128,290.874 -265.128,296.288 "/>
<path fill="#FFFFFF" d="M-114.007,270.811h-22c-1.65,0-3,1.35-3,3v22c0,1.65,1.35,3,3,3h22c1.65,0,3-1.35,3-3v-22
	C-111.007,272.161-112.356,270.811-114.007,270.811z M-118.636,288.607l-2.574,2.575l-3.797-3.796l-3.795,3.795l-2.576-2.575
	l3.797-3.796l-3.797-3.795l2.576-2.575l3.795,3.796l3.797-3.797l2.574,2.575l-3.795,3.796L-118.636,288.607z"/>
</svg>
